<svg width="972" height="662" viewBox="0 0 972 662" fill="none" xmlns="http://www.w3.org/2000/svg">
<g id="undraw_Designer_by46 1">
<g clip-path="url(#clip0)">
<g id="utilities">
<path id="Vector" d="M145.834 537.809C138.85 564.407 114.375 581.029 114.375 581.029C114.375 581.029 101.225 554.527 108.209 527.929C115.194 501.331 139.668 484.71 139.668 484.71C139.668 484.71 152.819 511.211 145.834 537.809Z" fill="#3F3D56"/>
<path id="Vector_2" d="M135.24 532.183C115.678 551.51 113.489 581.014 113.489 581.014C113.489 581.014 143.017 579.183 162.58 559.855C182.143 540.528 184.331 511.024 184.331 511.024C184.331 511.024 154.803 512.856 135.24 532.183Z" fill="#6C63FF"/>
<path id="Vector_3" d="M159.772 573.241H83.251C74.8576 573.241 68.0535 580.045 68.0535 588.439V603.54C68.0535 611.933 74.8576 618.737 83.251 618.737H159.772C168.165 618.737 174.969 611.933 174.969 603.54V588.439C174.969 580.045 168.165 573.241 159.772 573.241Z" fill="#6C63FF"/>
<g id="Group" opacity="0.7">
<path id="Vector_4" opacity="0.7" d="M895.494 544.178V527.785H813.525V603.606C813.525 605.705 813.939 607.784 814.742 609.723C815.545 611.662 816.723 613.424 818.207 614.908C819.691 616.393 821.453 617.57 823.392 618.373C825.332 619.177 827.41 619.59 829.509 619.59H879.51C883.75 619.59 887.815 617.906 890.813 614.908C893.81 611.911 895.494 607.845 895.494 603.606V586.802C901.139 586.791 906.55 584.541 910.537 580.546C914.525 576.55 916.765 571.135 916.765 565.49C916.765 559.845 914.525 554.431 910.537 550.435C906.55 546.439 901.139 544.189 895.494 544.178V544.178ZM895.494 578.605V552.375C898.973 552.375 902.308 553.757 904.768 556.217C907.228 558.676 908.609 562.012 908.609 565.49C908.609 568.969 907.228 572.304 904.768 574.764C902.308 577.224 898.973 578.605 895.494 578.605V578.605Z" fill="url(#paint0_linear)"/>
</g>
<path id="Vector_5" d="M892.857 546.744C889.008 546.744 885.246 547.886 882.046 550.024C878.846 552.162 876.352 555.201 874.879 558.757C873.407 562.312 873.021 566.225 873.772 569.999C874.523 573.774 876.376 577.241 879.098 579.963C881.819 582.684 885.286 584.537 889.061 585.288C892.835 586.039 896.748 585.653 900.304 584.181C903.859 582.708 906.898 580.214 909.036 577.014C911.175 573.814 912.316 570.052 912.316 566.203C912.316 561.042 910.266 556.093 906.616 552.444C902.967 548.795 898.018 546.744 892.857 546.744ZM892.857 578.178C890.489 578.178 888.174 577.475 886.204 576.16C884.235 574.844 882.7 572.974 881.794 570.786C880.888 568.598 880.65 566.19 881.112 563.867C881.575 561.544 882.715 559.41 884.39 557.736C886.064 556.061 888.198 554.921 890.521 554.459C892.844 553.997 895.251 554.234 897.44 555.14C899.628 556.046 901.498 557.581 902.814 559.55C904.129 561.52 904.832 563.835 904.832 566.203C904.832 569.379 903.57 572.425 901.324 574.67C899.079 576.916 896.033 578.178 892.857 578.178V578.178Z" fill="#6C63FF"/>
<path id="Vector_6" opacity="0.1" d="M892.857 546.744C889.008 546.744 885.246 547.886 882.046 550.024C878.846 552.162 876.352 555.201 874.879 558.757C873.407 562.312 873.021 566.225 873.772 569.999C874.523 573.774 876.376 577.241 879.098 579.963C881.819 582.684 885.286 584.537 889.061 585.288C892.835 586.039 896.748 585.653 900.304 584.181C903.859 582.708 906.898 580.214 909.036 577.014C911.175 573.814 912.316 570.052 912.316 566.203C912.316 561.042 910.266 556.093 906.616 552.444C902.967 548.795 898.018 546.744 892.857 546.744ZM892.857 578.178C890.489 578.178 888.174 577.475 886.204 576.16C884.235 574.844 882.7 572.974 881.794 570.786C880.888 568.598 880.65 566.19 881.112 563.867C881.575 561.544 882.715 559.41 884.39 557.736C886.064 556.061 888.198 554.921 890.521 554.459C892.844 553.997 895.251 554.234 897.44 555.14C899.628 556.046 901.498 557.581 902.814 559.55C904.129 561.52 904.832 563.835 904.832 566.203C904.832 569.379 903.57 572.425 901.324 574.67C899.079 576.916 896.033 578.178 892.857 578.178V578.178Z" fill="black"/>
<path id="Vector_7" d="M818.016 531.776H892.857V605.848C892.857 608.434 891.83 610.914 890.001 612.743C888.173 614.571 885.693 615.598 883.107 615.598H827.766C825.18 615.598 822.7 614.571 820.871 612.743C819.043 610.914 818.016 608.434 818.016 605.848V531.776Z" fill="#6C63FF"/>
</g>
<path id="Vector_8" d="M971.44 615.598H0V648.529H971.44V615.598Z" fill="#E0E0E0"/>
<g id="designer">
<g id="Group_2" opacity="0.7">
<path id="Vector_9" opacity="0.7" d="M638.572 397.265C628.16 359.473 569.134 331.876 524.721 325.757C524.727 325.478 524.742 325.202 524.742 324.921V292.571C524.789 292.554 524.838 292.539 524.885 292.522V291.296C540.647 285.434 554.87 276.065 566.479 263.898C578.088 251.731 586.779 237.084 591.895 221.064C594.64 216.101 597.03 210.95 599.045 205.648C603.786 203.922 607.367 196.104 607.367 186.71C607.385 183.496 606.934 180.297 606.029 177.214C606.611 172.43 606.908 167.615 606.918 162.795C606.937 145.946 603.412 129.282 596.573 113.883C589.734 98.4847 579.734 84.6962 567.221 73.4127C567.593 71.4772 567.719 69.5026 567.597 67.5355C566.592 52.0084 550.007 41.4597 534.464 40.7541C538.57 36.0963 541.269 30.3687 542.248 24.2373C543.227 18.1059 542.446 11.8225 539.995 6.11752C530.084 20.5568 509.737 22.0917 492.224 22.2053C499.78 19.2788 503.181 8.8081 498.786 2C480.482 26.5339 444.801 31.0769 423.03 52.5937C418.287 57.3 414.312 62.7215 411.25 68.6603C397.102 79.9315 385.679 94.2497 377.832 110.548C369.986 126.847 365.918 144.706 365.931 162.795C365.941 167.571 366.232 172.342 366.803 177.084C365.87 180.207 365.405 183.451 365.423 186.71C365.423 196.147 369.038 203.989 373.811 205.667C375.835 210.987 378.236 216.155 380.994 221.134C386.092 237.061 394.725 251.629 406.248 263.748C417.771 275.868 431.885 285.225 447.535 291.119V324.921C447.535 325.181 447.55 325.438 447.555 325.697C402.974 331.711 343.476 359.525 333.157 397.621C324.245 430.52 314.733 466.649 310 487.862C350.568 516.367 435.693 533.105 489.041 533.105C539.728 533.105 622.574 517.998 661.948 492.042C657.683 468.734 647.87 431.018 638.572 397.265Z" fill="url(#paint1_linear)"/>
</g>
<path id="Vector_10" d="M488.933 523.722C537.829 523.722 617.747 509.148 655.73 484.109C651.615 461.625 642.15 425.242 633.179 392.681C621.755 351.213 549.652 322.465 506.639 322.465H465.19C422.045 322.465 349.837 351.38 338.557 393.025C329.96 424.761 320.784 459.614 316.218 480.077C355.353 507.575 437.47 523.722 488.933 523.722Z" fill="#6C63FF"/>
<path id="Vector_11" d="M486.409 282.733C550.604 282.733 602.644 230.692 602.644 166.497C602.644 102.302 550.604 50.261 486.409 50.261C422.213 50.261 370.173 102.302 370.173 166.497C370.173 230.692 422.213 282.733 486.409 282.733Z" fill="#72351C"/>
<path id="Vector_12" opacity="0.1" d="M448.893 263.311H523.372V322.894C523.372 332.771 519.449 342.242 512.465 349.226C505.481 356.21 496.009 360.133 486.133 360.133H486.133C476.256 360.133 466.784 356.21 459.801 349.226C452.817 342.242 448.893 332.771 448.893 322.894V263.311H448.893Z" fill="black"/>
<path id="Vector_13" d="M459.576 260.553H512.689C515.522 260.553 518.24 261.678 520.243 263.682C522.247 265.685 523.372 268.402 523.372 271.236V320.136C523.372 330.012 519.449 339.484 512.465 346.468C505.481 353.451 496.009 357.375 486.133 357.375H486.133C476.256 357.375 466.784 353.451 459.801 346.468C452.817 339.484 448.893 330.012 448.893 320.136V271.236C448.893 268.402 450.019 265.685 452.022 263.682C454.026 261.678 456.743 260.553 459.576 260.553V260.553Z" fill="#FDA57D"/>
<path id="Vector_14" opacity="0.1" d="M449.031 291.434C473.035 300.402 499.457 300.475 523.51 291.639V282.49H449.031V291.434Z" fill="black"/>
<path id="Vector_15" d="M486.409 296.421C545.366 296.421 593.161 248.626 593.161 189.668C593.161 130.71 545.366 82.9152 486.409 82.9152C427.451 82.9152 379.656 130.71 379.656 189.668C379.656 248.626 427.451 296.421 486.409 296.421Z" fill="#FDA57D"/>
<path id="Vector_16" opacity="0.1" d="M410.368 92.5648C410.368 92.5648 455.358 183.887 582.27 130.84L552.724 84.5069L500.348 65.7052L410.368 92.5648Z" fill="black"/>
<path id="Vector_17" d="M410.368 91.2218C410.368 91.2218 455.358 182.544 582.27 129.497L552.724 83.1639L500.348 64.3622L410.368 91.2218Z" fill="#72351C"/>
<path id="Vector_18" d="M409.969 85.0522C413.001 75.661 418.243 67.1347 425.254 60.1895C446.256 39.433 480.676 35.0506 498.333 11.3836C502.573 17.9512 499.293 28.0518 492.003 30.8749C508.897 30.7653 528.526 29.2847 538.086 15.3556C540.451 20.859 541.204 26.9204 540.26 32.8351C539.315 38.7499 536.711 44.2751 532.75 48.7683C547.745 49.4489 563.743 59.6249 564.712 74.6033C565.358 84.582 559.101 94.0298 550.901 99.7526C542.701 105.475 532.78 108.102 523.015 110.255C494.51 116.54 391.368 142.882 409.969 85.0522Z" fill="#72351C"/>
<path id="Vector_19" d="M593.158 190.602H590.328L535.265 239.621C482.218 214.776 443.271 239.621 443.271 239.621L385.523 192.617L379.7 193.348C380.49 221.366 392.267 247.95 412.489 267.358C432.711 286.767 459.755 297.444 487.781 297.083C515.808 296.723 542.568 285.354 562.284 265.431C582 245.509 593.09 218.631 593.158 190.602V190.602ZM486.247 258.423C465.479 258.423 448.643 254.214 448.643 249.022C448.643 243.83 465.479 239.621 486.247 239.621C507.015 239.621 523.85 243.83 523.85 249.022C523.85 254.214 507.015 258.423 486.247 258.423Z" fill="#72351C"/>
<path id="Vector_20" d="M379.613 208.186C385.098 208.186 389.544 199.85 389.544 189.566C389.544 179.283 385.098 170.947 379.613 170.947C374.129 170.947 369.683 179.283 369.683 189.566C369.683 199.85 374.129 208.186 379.613 208.186Z" fill="#FDA57D"/>
<path id="Vector_21" d="M593.147 208.186C598.632 208.186 603.078 199.85 603.078 189.566C603.078 179.283 598.632 170.947 593.147 170.947C587.663 170.947 583.217 179.283 583.217 189.566C583.217 199.85 587.663 208.186 593.147 208.186Z" fill="#FDA57D"/>
</g>
<g id="Group_3" opacity="0.7">
<path id="Vector_22" opacity="0.7" d="M677.782 377.704H293.658C285.65 377.704 279.158 384.196 279.158 392.204V601.098C279.158 609.107 285.65 615.598 293.658 615.598H677.782C685.79 615.598 692.282 609.107 692.282 601.098V392.204C692.282 384.196 685.79 377.704 677.782 377.704Z" fill="url(#paint2_linear)"/>
</g>
<g id="laptop">
<path id="Vector_23" d="M657.963 382.093H313.477C298.657 382.093 286.642 394.108 286.642 408.928V588.763C286.642 603.584 298.657 615.598 313.477 615.598H657.963C672.784 615.598 684.798 603.584 684.798 588.763V408.928C684.798 394.108 672.784 382.093 657.963 382.093Z" fill="#535461"/>
<path id="Vector_24" d="M485.72 512.317C493.16 512.317 499.192 506.286 499.192 498.846C499.192 491.406 493.16 485.374 485.72 485.374C478.28 485.374 472.249 491.406 472.249 498.846C472.249 506.286 478.28 512.317 485.72 512.317Z" fill="white"/>
</g>
<path id="Vector_25" d="M930.278 648.529H41.1627V662H930.278V648.529Z" fill="#E0E0E0"/>
<path id="Vector_26" opacity="0.1" d="M930.278 648.529H41.1627V653.019H930.278V648.529Z" fill="black"/>
</g>
</g>
<defs>
<linearGradient id="paint0_linear" x1="865.166" y1="619.59" x2="865.166" y2="527.785" gradientUnits="userSpaceOnUse">
<stop stop-color="#808080" stop-opacity="0.25"/>
<stop offset="0.53514" stop-color="#808080" stop-opacity="0.12"/>
<stop offset="1" stop-color="#808080" stop-opacity="0.1"/>
</linearGradient>
<linearGradient id="paint1_linear" x1="211708" y1="345276" x2="211708" y2="63203.5" gradientUnits="userSpaceOnUse">
<stop stop-color="#808080" stop-opacity="0.25"/>
<stop offset="0.53514" stop-color="#808080" stop-opacity="0.12"/>
<stop offset="1" stop-color="#808080" stop-opacity="0.1"/>
</linearGradient>
<linearGradient id="paint2_linear" x1="200942" y1="146825" x2="200942" y2="90231.3" gradientUnits="userSpaceOnUse">
<stop stop-color="#808080" stop-opacity="0.25"/>
<stop offset="0.53514" stop-color="#808080" stop-opacity="0.12"/>
<stop offset="1" stop-color="#808080" stop-opacity="0.1"/>
</linearGradient>
<clipPath id="clip0">
<rect width="971.44" height="662" fill="white"/>
</clipPath>
</defs>
</svg>
