<svg width="896" height="640" viewBox="0 0 896 640" fill="none" xmlns="http://www.w3.org/2000/svg">
<g id="undraw_Working_oh83 1">
<g id="doc1">
<path id="Vector" d="M256.932 4.48087L80.2975 44.4563C73.0604 46.0942 68.5213 53.2889 70.1591 60.526L130.892 328.879C132.53 336.116 139.725 340.655 146.962 339.017L323.596 299.042C330.833 297.404 335.372 290.209 333.735 282.972L273.002 14.6192C271.364 7.38206 264.169 2.84298 256.932 4.48087Z" fill="#3F3D56"/>
<path id="Vector_2" d="M87.5974 93C90.9111 93 93.5974 90.3137 93.5974 87C93.5974 83.6863 90.9111 81 87.5974 81C84.2836 81 81.5974 83.6863 81.5974 87C81.5974 90.3137 84.2836 93 87.5974 93Z" fill="white"/>
<path id="Vector_3" d="M93.5974 115C96.9111 115 99.5974 112.314 99.5974 109C99.5974 105.686 96.9111 103 93.5974 103C90.2836 103 87.5974 105.686 87.5974 109C87.5974 112.314 90.2836 115 93.5974 115Z" fill="white"/>
<path id="Vector_4" d="M256.186 116.084L134.39 143.649L138.984 163.948L260.78 136.383L256.186 116.084Z" fill="#F5F5F5"/>
</g>
<g id="doc3">
<path id="Vector_5" d="M631.729 58.6352L428.886 104.542L495.551 399.103L698.393 353.196L631.729 58.6352Z" fill="#3F3D56"/>
<path id="Vector_6" opacity="0.3" d="M585.94 280.344L496.284 300.635L497.433 305.709L587.088 285.419L585.94 280.344Z" fill="#6C63FF"/>
<path id="Vector_7" opacity="0.3" d="M661.359 275.723L498.964 312.476L500.113 317.551L662.507 280.798L661.359 275.723Z" fill="#6C63FF"/>
<path id="Vector_8" opacity="0.3" d="M664.039 287.564L501.644 324.317L502.793 329.392L665.187 292.639L664.039 287.564Z" fill="#6C63FF"/>
<path id="Vector_9" opacity="0.3" d="M654.877 302.085L504.324 336.158L505.473 341.233L656.026 307.16L654.877 302.085Z" fill="#6C63FF"/>
<path id="Vector_10" opacity="0.3" d="M669.399 311.247L507.004 348L508.153 353.074L670.547 316.322L669.399 311.247Z" fill="#6C63FF"/>
<path id="Vector_11" opacity="0.3" d="M553.051 95.7358L454.938 117.941L470.251 185.605L568.365 163.4L553.051 95.7358Z" fill="#6C63FF"/>
<path id="Vector_12" opacity="0.3" d="M649.081 166.472L550.968 188.677L566.281 256.341L664.395 234.136L649.081 166.472Z" fill="#6C63FF"/>
<g id="Group" opacity="0.5">
<path id="Vector_13" opacity="0.5" d="M515.597 0H512.597V17H515.597V0Z" fill="#47E6B1"/>
<path id="Vector_14" opacity="0.5" d="M522.597 10V7L505.597 7V10H522.597Z" fill="#47E6B1"/>
</g>
</g>
<g id="doc2">
<path id="Vector_15" d="M417.822 107.046L214.98 152.953L281.644 447.514L484.486 401.607L417.822 107.046Z" fill="#6C63FF"/>
<path id="Vector_16" d="M380.186 149.084L258.39 176.649L262.984 196.948L384.78 169.383L380.186 149.084Z" fill="#F5F5F5"/>
<path id="Vector_17" d="M411.588 193.547L249.193 230.299L250.342 235.374L412.736 198.622L411.588 193.547Z" fill="#F5F5F5"/>
<path id="Vector_18" d="M414.268 205.388L251.873 242.141L253.022 247.216L415.416 210.463L414.268 205.388Z" fill="#F5F5F5"/>
<path id="Vector_19" d="M416.948 217.229L254.553 253.982L255.702 259.057L418.096 222.304L416.948 217.229Z" fill="#F5F5F5"/>
<path id="Vector_20" d="M335.047 248.213L257.233 265.823L258.382 270.898L336.196 253.287L335.047 248.213Z" fill="#F5F5F5"/>
<path id="Vector_21" d="M349.568 257.374L259.913 277.665L261.061 282.739L350.717 262.449L349.568 257.374Z" fill="#F5F5F5"/>
<path id="Vector_22" d="M424.987 252.753L262.593 289.506L263.741 294.581L426.136 257.828L424.987 252.753Z" fill="#F5F5F5"/>
<path id="Vector_23" d="M427.667 264.594L265.273 301.347L266.421 306.422L428.816 269.669L427.667 264.594Z" fill="#F5F5F5"/>
<path id="Vector_24" d="M418.506 279.116L267.953 313.188L269.101 318.263L419.654 284.19L418.506 279.116Z" fill="#F5F5F5"/>
<path id="Vector_25" d="M433.027 288.277L270.632 325.03L271.781 330.105L434.176 293.352L433.027 288.277Z" fill="#F5F5F5"/>
<path id="Vector_26" d="M357.893 317.729L273.312 336.871L274.461 341.946L359.041 322.804L357.893 317.729Z" fill="#F5F5F5"/>
<path id="Vector_27" d="M436.918 321.183L338.804 343.388L354.118 411.052L452.231 388.848L436.918 321.183Z" fill="#F5F5F5"/>
<path id="Vector_28" opacity="0.5" d="M360.29 508.592C359.463 508.232 358.797 507.58 358.42 506.761C358.042 505.942 357.979 505.013 358.242 504.151C358.285 504.019 358.312 503.882 358.322 503.743V503.743C358.346 503.348 358.242 502.956 358.026 502.624C357.809 502.293 357.492 502.04 357.121 501.903C356.749 501.766 356.344 501.752 355.964 501.863C355.584 501.975 355.25 502.206 355.012 502.522V502.522C354.93 502.634 354.861 502.756 354.808 502.884C354.448 503.711 353.796 504.376 352.977 504.754C352.158 505.131 351.229 505.194 350.367 504.931C350.235 504.889 350.098 504.862 349.959 504.851V504.851C349.564 504.827 349.172 504.931 348.84 505.148C348.509 505.364 348.256 505.682 348.119 506.053C347.982 506.424 347.968 506.83 348.079 507.21C348.191 507.59 348.422 507.924 348.738 508.162C348.85 508.244 348.972 508.312 349.1 508.366C349.927 508.726 350.592 509.377 350.97 510.196C351.347 511.015 351.41 511.944 351.147 512.807C351.105 512.939 351.078 513.076 351.067 513.214V513.214C351.043 513.61 351.147 514.002 351.364 514.333C351.58 514.665 351.897 514.918 352.269 515.055C352.64 515.192 353.046 515.206 353.426 515.094C353.806 514.983 354.14 514.752 354.378 514.436V514.436C354.46 514.323 354.528 514.202 354.582 514.074C354.942 513.247 355.593 512.582 356.412 512.204C357.231 511.826 358.16 511.763 359.023 512.026C359.155 512.069 359.292 512.096 359.43 512.106V512.106C359.825 512.13 360.218 512.026 360.549 511.81C360.881 511.594 361.134 511.276 361.271 510.905C361.408 510.533 361.422 510.128 361.31 509.748C361.199 509.368 360.968 509.034 360.651 508.796V508.796C360.539 508.714 360.418 508.645 360.29 508.592V508.592Z" fill="#4D8AF0"/>
</g>
<g id="doc4">
<path id="Vector_29" d="M694.932 131.481L518.298 171.456C511.06 173.094 506.521 180.289 508.159 187.526L568.892 455.879C570.53 463.116 577.725 467.655 584.962 466.017L761.596 426.042C768.833 424.404 773.372 417.209 771.735 409.972L711.002 141.619C709.364 134.382 702.169 129.843 694.932 131.481Z" fill="#6C63FF"/>
<path id="Vector_30" d="M525.597 220C528.911 220 531.597 217.314 531.597 214C531.597 210.686 528.911 208 525.597 208C522.284 208 519.597 210.686 519.597 214C519.597 217.314 522.284 220 525.597 220Z" fill="white"/>
<path id="Vector_31" d="M531.597 242C534.911 242 537.597 239.314 537.597 236C537.597 232.686 534.911 230 531.597 230C528.284 230 525.597 232.686 525.597 236C525.597 239.314 528.284 242 531.597 242Z" fill="white"/>
<path id="Vector_32" d="M570.597 403C573.911 403 576.597 400.314 576.597 397C576.597 393.686 573.911 391 570.597 391C567.284 391 564.597 393.686 564.597 397C564.597 400.314 567.284 403 570.597 403Z" fill="white"/>
<path id="Vector_33" d="M576.597 425C579.911 425 582.597 422.314 582.597 419C582.597 415.686 579.911 413 576.597 413C573.284 413 570.597 415.686 570.597 419C570.597 422.314 573.284 425 576.597 425Z" fill="white"/>
<path id="Vector_34" d="M694.186 243.084L572.39 270.649L576.984 290.948L698.78 263.384L694.186 243.084Z" fill="#F5F5F5"/>
</g>
</g>
</svg>
