<svg width="1110" height="749" viewBox="0 0 1110 749" fill="none" xmlns="http://www.w3.org/2000/svg">
<path d="M1106.75 540.58C1106.75 584.95 862.51 748.34 557.48 748.34C252.45 748.34 12.34 574.22 12.34 529.85C12.34 485.48 252.45 587.64 557.48 587.64C862.51 587.64 1106.75 496.17 1106.75 540.58Z" fill="#3F3D56"/>
<path d="M1109.78 522.87C1109.78 523.46 1109.78 524.05 1109.78 524.65C1109.11 543.09 1098.84 561.43 1080.1 574.38C1060.22 588.1 1033.56 595.32 1006.19 599.93C1001.91 600.65 997.61 601.3 993.32 601.93C991.13 602.23 988.95 602.53 986.78 602.81C925.85 610.81 863.64 612.34 801.72 613.81C736.95 615.41 672.12 616.99 607.28 617.81L594.42 617.96C496.04 619.02 397.7 618.13 299.68 612.55C269.26 610.83 238.54 608.55 208.38 604.71C204.08 604.183 199.793 603.607 195.52 602.98C155.52 597.25 116.71 588.46 81.35 574.19C73.0028 570.858 64.8381 567.086 56.89 562.89C34.68 551.1 15.95 536.19 6.68 517.89C1.28755 507.161 -0.932645 495.117 0.279999 483.17C0.67661 478.827 1.42235 474.523 2.51 470.3C5.29804 459.851 9.55016 449.848 15.14 440.59C29.58 416.17 51.27 394.28 69.97 371.35C109.89 322.48 135.89 260.73 99.05 210.64C88.48 196.25 73.2 183.64 64.59 168.59C59.9841 160.46 57.1105 151.465 56.15 142.17C55.6826 137.897 55.5055 133.597 55.62 129.3C56.0285 119.266 57.2829 109.284 59.37 99.46C65.37 68.74 76.58 35.62 111.2 16.46C134.83 3.38005 164.95 -0.679954 195.49 0.0900461C199.777 0.190046 204.063 0.390045 208.35 0.690045C220.06 1.46004 231.7 2.88004 242.94 4.69004C312.38 15.78 376.47 38.95 441.17 59.87C490.43 75.79 541.45 90.6801 594.39 97.7801C598.67 98.3501 602.95 98.88 607.25 99.34C619.66 100.7 632.18 101.6 644.8 101.97C707.61 103.77 780.89 90.17 822.6 54.85C862.89 20.71 938.45 17.96 993.29 38.35L994.11 38.66C998.237 40.2334 1002.24 41.9267 1006.11 43.74C1046.52 62.74 1073.59 95.28 1077.41 129.33C1077.89 133.559 1078 137.821 1077.75 142.07C1077.76 142.113 1077.76 142.157 1077.75 142.2C1075.13 184.09 1040.89 219.27 1006.12 254.51C1001.82 258.86 997.51 263.21 993.25 267.59C981.97 279.17 971.04 290.84 961.56 302.85C957.231 308.294 953.25 314.005 949.64 319.95C946.322 325.433 943.488 331.195 941.17 337.17C938.725 343.355 937.153 349.851 936.5 356.47C935.525 365.958 937.259 375.527 941.5 384.07L941.59 384.27C950.87 402.67 970.51 415.71 993.25 427.27C997.44 429.41 1001.75 431.49 1006.12 433.55C1030.78 445.19 1057.35 456 1077.55 470.37C1083 474.157 1088.08 478.442 1092.73 483.17C1094.62 485.131 1096.41 487.19 1098.09 489.34C1105.47 498.659 1109.57 510.147 1109.77 522.03C1109.78 522.33 1109.78 522.6 1109.78 522.87Z" fill="#6C63FF"/>
<path d="M1109.78 522.87C1109.78 523.46 1109.78 524.05 1109.78 524.65C1109.11 543.09 1098.84 561.43 1080.1 574.38C1060.22 588.1 1033.56 595.32 1006.19 599.93C1001.91 600.65 997.61 601.3 993.32 601.93C991.13 602.23 988.95 602.53 986.78 602.81C925.85 610.81 863.64 612.34 801.72 613.81C736.95 615.41 672.12 616.99 607.28 617.81L594.42 617.96C496.04 619.02 397.7 618.13 299.68 612.55C269.26 610.83 238.54 608.55 208.38 604.71C204.08 604.183 199.793 603.607 195.52 602.98C155.52 597.25 116.71 588.46 81.35 574.19C73.0028 570.858 64.8381 567.086 56.89 562.89C34.68 551.1 15.95 536.19 6.68 517.89C1.28755 507.161 -0.932645 495.117 0.279999 483.17C0.67661 478.827 1.42235 474.523 2.51 470.3C5.29804 459.851 9.55016 449.848 15.14 440.59C29.58 416.17 51.27 394.28 69.97 371.35C109.89 322.48 135.89 260.73 99.05 210.64C88.48 196.25 73.2 183.64 64.59 168.59C59.9841 160.46 57.1105 151.465 56.15 142.17C55.6826 137.897 55.5055 133.597 55.62 129.3C56.0285 119.266 57.2829 109.284 59.37 99.46C65.37 68.74 76.58 35.62 111.2 16.46C134.83 3.38005 164.95 -0.679954 195.49 0.0900461C199.777 0.190046 204.063 0.390045 208.35 0.690045C220.06 1.46004 231.7 2.88004 242.94 4.69004C312.38 15.78 376.47 38.95 441.17 59.87C490.43 75.79 541.45 90.6801 594.39 97.7801C598.67 98.3501 602.95 98.88 607.25 99.34C619.66 100.7 632.18 101.6 644.8 101.97C707.61 103.77 780.89 90.17 822.6 54.85C862.89 20.71 938.45 17.96 993.29 38.35L994.11 38.66C998.237 40.2334 1002.24 41.9267 1006.11 43.74C1046.52 62.74 1073.59 95.28 1077.41 129.33C1077.89 133.559 1078 137.821 1077.75 142.07C1077.76 142.113 1077.76 142.157 1077.75 142.2C1075.13 184.09 1040.89 219.27 1006.12 254.51C1001.82 258.86 997.51 263.21 993.25 267.59C981.97 279.17 971.04 290.84 961.56 302.85C957.231 308.294 953.25 314.005 949.64 319.95C946.322 325.433 943.488 331.195 941.17 337.17C938.725 343.355 937.153 349.851 936.5 356.47C935.525 365.958 937.259 375.527 941.5 384.07L941.59 384.27C950.87 402.67 970.51 415.71 993.25 427.27C997.44 429.41 1001.75 431.49 1006.12 433.55C1030.78 445.19 1057.35 456 1077.55 470.37C1083 474.157 1088.08 478.442 1092.73 483.17C1094.62 485.131 1096.41 487.19 1098.09 489.34C1105.47 498.659 1109.57 510.147 1109.77 522.03C1109.78 522.33 1109.78 522.6 1109.78 522.87Z" fill="url(#paint0_linear)"/>
<path d="M1006.16 43.74V254.5C1001.86 258.86 997.55 263.21 993.29 267.59V38.35L1006.16 43.74Z" fill="#3F3D56"/>
<path d="M1077.8 142.07C1077.81 142.113 1077.81 142.157 1077.8 142.2H56.15C55.683 137.927 55.5059 133.627 55.62 129.33H1077.46C1077.94 133.559 1078.05 137.821 1077.8 142.07V142.07Z" fill="#3F3D56"/>
<path d="M241.32 75.5601C243.391 75.5601 245.07 73.8811 245.07 71.8101C245.07 69.739 243.391 68.0601 241.32 68.0601C239.249 68.0601 237.57 69.739 237.57 71.8101C237.57 73.8811 239.249 75.5601 241.32 75.5601Z" fill="#E7EFFD"/>
<path d="M121.22 68.0501C123.291 68.0501 124.97 66.3711 124.97 64.3001C124.97 62.229 123.291 60.55 121.22 60.55C119.149 60.55 117.47 62.229 117.47 64.3001C117.47 66.3711 119.149 68.0501 121.22 68.0501Z" fill="#E7EFFD"/>
<path d="M283.68 73.42C284.569 73.42 285.29 72.6991 285.29 71.81C285.29 70.9208 284.569 70.2 283.68 70.2C282.791 70.2 282.07 70.9208 282.07 71.81C282.07 72.6991 282.791 73.42 283.68 73.42Z" fill="#E7EFFD"/>
<path d="M163.04 69.67C163.929 69.67 164.65 68.9491 164.65 68.06C164.65 67.1708 163.929 66.45 163.04 66.45C162.151 66.45 161.43 67.1708 161.43 68.06C161.43 68.9491 162.151 69.67 163.04 69.67Z" fill="#E7EFFD"/>
<path d="M161.44 182.12C162.329 182.12 163.05 181.399 163.05 180.51C163.05 179.621 162.329 178.9 161.44 178.9C160.551 178.9 159.83 179.621 159.83 180.51C159.83 181.399 160.551 182.12 161.44 182.12Z" fill="#E7EFFD"/>
<path d="M904.01 97.14C904.899 97.14 905.62 96.4192 905.62 95.53C905.62 94.6409 904.899 93.92 904.01 93.92C903.121 93.92 902.4 94.6409 902.4 95.53C902.4 96.4192 903.121 97.14 904.01 97.14Z" fill="#E7EFFD"/>
<path d="M358.74 98.62C359.629 98.62 360.35 97.8992 360.35 97.01C360.35 96.1208 359.629 95.4 358.74 95.4C357.851 95.4 357.13 96.1208 357.13 97.01C357.13 97.8992 357.851 98.62 358.74 98.62Z" fill="#E7EFFD"/>
<path d="M824.66 95.4001C825.549 95.4001 826.27 94.6792 826.27 93.7901C826.27 92.9009 825.549 92.1801 824.66 92.1801C823.771 92.1801 823.05 92.9009 823.05 93.7901C823.05 94.6792 823.771 95.4001 824.66 95.4001Z" fill="#E7EFFD"/>
<path d="M1027.33 100.23C1028.22 100.23 1028.94 99.5092 1028.94 98.62C1028.94 97.7308 1028.22 97.01 1027.33 97.01C1026.44 97.01 1025.72 97.7308 1025.72 98.62C1025.72 99.5092 1026.44 100.23 1027.33 100.23Z" fill="#E7EFFD"/>
<path d="M1109.78 522.87C1109.78 523.46 1109.78 524.05 1109.78 524.65C1109.27 543.23 1098.98 561.76 1080.1 574.8C1060.22 588.52 1033.56 595.74 1006.19 600.35C1001.91 601.07 997.61 601.72 993.32 602.35C991.13 602.65 988.95 602.95 986.78 603.23C971.78 605.23 956.7 606.76 941.57 608.04C921.27 609.76 900.87 610.95 880.45 611.83C854.23 612.98 827.96 613.63 801.72 614.28C750.43 615.54 699.1 616.8 647.72 617.67L629.49 617.97L607.25 618.27L594.39 618.42C513.39 619.28 432.51 618.84 351.77 615.54C346.397 615.327 341.033 615.093 335.68 614.84C323.68 614.313 311.68 613.703 299.68 613.01C275.63 611.65 251.39 609.93 227.41 607.38C221.05 606.713 214.717 605.977 208.41 605.17C204.11 604.643 199.823 604.067 195.55 603.44C190.79 602.773 186.05 602.047 181.33 601.26C146.33 595.54 112.54 587.26 81.38 574.64C73.0256 571.291 64.8512 567.509 56.89 563.31V387.31C61.33 382.16 65.74 377.01 69.98 371.8C75.08 365.54 79.98 359.09 84.48 352.47H181.28V292.82H351.78V423.96H629.49V319.96H949.89C946.635 325.267 943.829 330.837 941.5 336.61V337.17H941.13C938.685 343.355 937.113 349.851 936.46 356.47C935.485 365.958 937.219 375.527 941.46 384.07V384.49L941.55 384.69C950.83 403.09 970.47 416.13 993.21 427.69C997.4 429.83 1001.71 431.91 1006.08 433.97C1030.49 445.49 1056.79 456.21 1076.91 470.37L1077.51 470.79C1082.81 474.465 1087.76 478.608 1092.32 483.17C1092.47 483.31 1092.6 483.45 1092.73 483.59C1094.62 485.551 1096.41 487.61 1098.09 489.76C1105.38 498.968 1109.47 510.292 1109.77 522.03C1109.78 522.33 1109.78 522.6 1109.78 522.87Z" fill="#6C63FF"/>
<path opacity="0.3" d="M1109.78 522.87C1109.78 523.46 1109.78 524.05 1109.78 524.65C1109.27 543.23 1098.98 561.76 1080.1 574.8C1060.22 588.52 1033.56 595.74 1006.19 600.35C1001.91 601.07 997.61 601.72 993.32 602.35C991.13 602.65 988.95 602.95 986.78 603.23C971.78 605.23 956.7 606.76 941.57 608.04C921.27 609.76 900.87 610.95 880.45 611.83C854.23 612.98 827.96 613.63 801.72 614.28C750.43 615.54 699.1 616.8 647.72 617.67L629.49 617.97L607.25 618.27L594.39 618.42C513.39 619.28 432.51 618.84 351.77 615.54C346.397 615.327 341.033 615.093 335.68 614.84C323.68 614.313 311.68 613.703 299.68 613.01C275.63 611.65 251.39 609.93 227.41 607.38C221.05 606.713 214.717 605.977 208.41 605.17C204.11 604.643 199.823 604.067 195.55 603.44C190.79 602.773 186.05 602.047 181.33 601.26C146.33 595.54 112.54 587.26 81.38 574.64C73.0256 571.291 64.8512 567.509 56.89 563.31V387.31C61.33 382.16 65.74 377.01 69.98 371.8C75.08 365.54 79.98 359.09 84.48 352.47H181.28V292.82H351.78V423.96H629.49V319.96H949.89C946.635 325.267 943.829 330.837 941.5 336.61V337.17H941.13C938.685 343.355 937.113 349.851 936.46 356.47C935.485 365.958 937.219 375.527 941.46 384.07V384.49L941.55 384.69C950.83 403.09 970.47 416.13 993.21 427.69C997.4 429.83 1001.71 431.91 1006.08 433.97C1030.49 445.49 1056.79 456.21 1076.91 470.37L1077.51 470.79C1082.81 474.465 1087.76 478.608 1092.32 483.17C1092.47 483.31 1092.6 483.45 1092.73 483.59C1094.62 485.551 1096.41 487.61 1098.09 489.76C1105.38 498.968 1109.47 510.292 1109.77 522.03C1109.78 522.33 1109.78 522.6 1109.78 522.87Z" fill="black"/>
<path opacity="0.4" d="M117.29 376.79H88.69V396.09H117.29V376.79Z" fill="black"/>
<path opacity="0.4" d="M163.05 376.79H134.45V396.09H163.05V376.79Z" fill="black"/>
<path opacity="0.4" d="M688.48 337.12H659.88V356.42H688.48V337.12Z" fill="black"/>
<path opacity="0.4" d="M765.69 337.12H737.09V356.42H765.69V337.12Z" fill="black"/>
<path opacity="0.4" d="M848.61 337.12H820.01V356.42H848.61V337.12Z" fill="black"/>
<path opacity="0.4" d="M688.48 396.1H659.88V415.4H688.48V396.1Z" fill="black"/>
<path opacity="0.4" d="M765.69 396.1H737.09V415.4H765.69V396.1Z" fill="black"/>
<path d="M848.61 396.1H820.01V415.4H848.61V396.1Z" fill="#6C63FF"/>
<path opacity="0.4" d="M688.48 455.07H659.88V474.37H688.48V455.07Z" fill="black"/>
<path opacity="0.4" d="M765.69 455.07H737.09V474.37H765.69V455.07Z" fill="black"/>
<path opacity="0.4" d="M848.61 455.07H820.01V474.37H848.61V455.07Z" fill="black"/>
<path opacity="0.4" d="M688.48 514.05H659.88V533.35H688.48V514.05Z" fill="black"/>
<path opacity="0.4" d="M765.69 514.05H737.09V533.35H765.69V514.05Z" fill="black"/>
<path opacity="0.4" d="M848.61 514.05H820.01V533.35H848.61V514.05Z" fill="black"/>
<path opacity="0.4" d="M688.48 573.03H659.88V592.33H688.48V573.03Z" fill="black"/>
<path opacity="0.4" d="M765.69 573.03H737.09V592.33H765.69V573.03Z" fill="black"/>
<path opacity="0.4" d="M848.61 573.03H820.01V592.33H848.61V573.03Z" fill="black"/>
<path opacity="0.4" d="M941.17 337.17C938.725 343.355 937.153 349.851 936.5 356.47H920.81V337.17H941.17Z" fill="black"/>
<path d="M949.41 396.1H920.81V415.4H949.41V396.1Z" fill="#6C63FF"/>
<path opacity="0.4" d="M949.41 455.07H920.81V474.37H949.41V455.07Z" fill="black"/>
<path opacity="0.4" d="M949.41 514.05H920.81V533.35H949.41V514.05Z" fill="black"/>
<path opacity="0.4" d="M949.41 573.03H920.81V592.33H949.41V573.03Z" fill="black"/>
<path opacity="0.4" d="M276 314.6H247.4V333.9H276V314.6Z" fill="black"/>
<path d="M276 357.87H247.4V377.17H276V357.87Z" fill="#6C63FF"/>
<path opacity="0.4" d="M276 401.13H247.4V420.43H276V401.13Z" fill="black"/>
<path opacity="0.4" d="M276 444.4H247.4V463.7H276V444.4Z" fill="black"/>
<path opacity="0.4" d="M276 487.66H247.4V506.96H276V487.66Z" fill="black"/>
<path opacity="0.4" d="M276 530.93H247.4V550.23H276V530.93Z" fill="black"/>
<path opacity="0.4" d="M276 574.19H247.4V593.49H276V574.19Z" fill="black"/>
<path opacity="0.4" d="M117.29 427.23H88.69V446.53H117.29V427.23Z" fill="black"/>
<path opacity="0.4" d="M163.05 427.23H134.45V446.53H163.05V427.23Z" fill="black"/>
<path opacity="0.4" d="M117.29 477.67H88.69V496.97H117.29V477.67Z" fill="black"/>
<path opacity="0.4" d="M163.05 477.67H134.45V496.97H163.05V477.67Z" fill="black"/>
<path opacity="0.4" d="M117.29 528.11H88.69V547.41H117.29V528.11Z" fill="black"/>
<path opacity="0.4" d="M163.05 528.11H134.45V547.41H163.05V528.11Z" fill="black"/>
<path opacity="0.4" d="M551.94 446.45H408.96V463.7H551.94V446.45Z" fill="black"/>
<path opacity="0.4" d="M551.94 501.49H408.96V518.74H551.94V501.49Z" fill="black"/>
<path opacity="0.4" d="M551.94 556.54H408.96V573.79H551.94V556.54Z" fill="black"/>
<path d="M208.35 0.689964V604.69C204.05 604.163 199.763 603.587 195.49 602.96V0.0899658C199.78 0.169966 204.06 0.389964 208.35 0.689964Z" fill="#3F3D56"/>
<path d="M607.25 99.32V617.83L594.39 617.98V97.75C598.67 98.33 602.957 98.8533 607.25 99.32Z" fill="#3F3D56"/>
<path d="M1092.73 483.17H0.280029C0.67664 478.827 1.42238 474.523 2.51003 470.3H1077.59C1083.03 474.106 1088.1 478.415 1092.73 483.17V483.17Z" fill="#3F3D56"/>
<path d="M993.29 427.23C997.48 429.37 1001.79 431.45 1006.16 433.51V599.93C1001.88 600.65 997.58 601.3 993.29 601.93V427.23Z" fill="#3F3D56"/>
<path d="M337.33 229.81H334.87V227.35H334.43V229.81H331.97V230.25H334.43V232.71H334.87V230.25H337.33V229.81Z" fill="#E7EFFD"/>
<path d="M848.61 178.68H846.15V176.22H845.7V178.68H843.25V179.12H845.7V181.58H846.15V179.12H848.61V178.68Z" fill="#E7EFFD"/>
<path d="M395.6 168.73H393.14V166.27H392.69V168.73H390.24V169.18H392.69V171.63H393.14V169.18H395.6V168.73Z" fill="#E7EFFD"/>
<path d="M391.85 327.57C392.739 327.57 393.46 326.849 393.46 325.96C393.46 325.071 392.739 324.35 391.85 324.35C390.961 324.35 390.24 325.071 390.24 325.96C390.24 326.849 390.961 327.57 391.85 327.57Z" fill="#E7EFFD"/>
<path d="M759.02 183.73C759.909 183.73 760.63 183.009 760.63 182.12C760.63 181.231 759.909 180.51 759.02 180.51C758.131 180.51 757.41 181.231 757.41 182.12C757.41 183.009 758.131 183.73 759.02 183.73Z" fill="#E7EFFD"/>
<path d="M920.81 259.98C921.699 259.98 922.42 259.259 922.42 258.37C922.42 257.481 921.699 256.76 920.81 256.76C919.921 256.76 919.2 257.481 919.2 258.37C919.2 259.259 919.921 259.98 920.81 259.98Z" fill="#E7EFFD"/>
<path d="M667.43 273.79C668.319 273.79 669.04 273.069 669.04 272.18C669.04 271.291 668.319 270.57 667.43 270.57C666.541 270.57 665.82 271.291 665.82 272.18C665.82 273.069 666.541 273.79 667.43 273.79Z" fill="#E7EFFD"/>
<path opacity="0.1" d="M387.76 598.89C387.76 598.89 437.22 603.34 450.82 611.45L387.76 598.89Z" fill="black"/>
<path opacity="0.1" d="M696.26 566.45C696.26 566.45 657.53 575.87 642.35 589.73L696.26 566.45Z" fill="black"/>
<path opacity="0.1" d="M390.64 587.64C391.43 587.9 413.41 590.78 412.88 592.87C412.35 594.96 390.64 587.64 390.64 587.64Z" fill="black"/>
<path opacity="0.1" d="M417.33 478.01C418.12 479.32 442.19 482.01 443.76 486.28C445.33 490.55 417.33 478.01 417.33 478.01Z" fill="black"/>
<path opacity="0.1" d="M409.74 498.42C409.74 498.42 413.01 488.21 420.74 490.04C428.47 491.87 409.74 498.42 409.74 498.42Z" fill="black"/>
<path opacity="0.1" d="M405.56 513.33C405.56 513.33 411.31 499.72 419.16 500.77C427.01 501.82 405.56 513.33 405.56 513.33Z" fill="black"/>
<path opacity="0.1" d="M650.73 445.5C650.73 445.5 664.47 441.77 664.92 445.5C665.37 449.23 650.73 445.5 650.73 445.5Z" fill="black"/>
<path opacity="0.1" d="M635.29 455.77C635.29 455.77 654.13 451.06 656.48 454.72C658.83 458.38 635.29 455.77 635.29 455.77Z" fill="black"/>
<path opacity="0.1" d="M631.1 465.71C631.1 465.71 659.36 461.78 661.19 467.54C663.02 473.3 631.1 465.71 631.1 465.71Z" fill="black"/>
<path opacity="0.1" d="M635.29 478.01C636.34 478.27 662.5 480.1 663.02 485.07C663.54 490.04 635.29 478.01 635.29 478.01Z" fill="black"/>
<path opacity="0.1" d="M462.61 416.11C462.61 416.11 484.09 432.53 500.7 420.02C500.7 420.02 472.62 422.57 462.61 416.11Z" fill="black"/>
<path opacity="0.1" d="M571.37 420.53C571.37 420.53 592.84 436.94 609.45 424.43C609.45 424.43 581.38 426.99 571.37 420.53Z" fill="black"/>
<path d="M826.89 561.17C826.89 561.17 820.1 592.8 850.32 596.55L852.19 593.04C852.19 593.04 828.79 571.04 826.89 561.17Z" fill="#6C63FF"/>
<path d="M861.83 592.83L854.83 594.32L854.13 594.47C854.13 594.47 835.38 579.25 835.62 545.27C838.129 550.277 841.127 555.023 844.57 559.44C851.98 569.27 860.43 582.4 861.83 592.83Z" fill="#6C63FF"/>
<path d="M864.21 596.09C863.656 596.448 863.029 596.678 862.375 596.762C861.722 596.847 861.057 596.785 860.43 596.58C842.43 592.36 848.48 533.58 848.48 533.58C849.48 534.05 850.57 541.58 854.72 551.18C862 568.17 870 591.83 864.21 596.09Z" fill="#6C63FF"/>
<path d="M904.23 561.17C904.23 561.17 905.4 592.8 875.18 596.55L873.31 593.04C873.31 593.04 902.36 571.04 904.23 561.17Z" fill="#6C63FF"/>
<path d="M895.57 545.27C895.79 579.27 871.43 594.47 871.43 594.47L870.73 594.32L863.73 592.83C865.12 582.4 873.59 569.27 881.01 559.44C885.207 554.086 890.104 549.32 895.57 545.27V545.27Z" fill="#6C63FF"/>
<path d="M870.62 593.01C869.539 594.328 868.171 595.382 866.62 596.09C866.148 596.302 865.655 596.466 865.15 596.58C860.71 597.58 859.15 594.42 859.41 588.98C859.83 579.29 865.92 562.49 871.41 549.98C875.35 540.92 881.78 534.06 882.74 533.61C882.68 533.56 882.41 579.35 870.62 593.01Z" fill="#6C63FF"/>
<path d="M865.58 512.94C865.58 512.94 845.43 584.4 862.77 595.18C880.11 605.96 870.03 519.27 865.58 512.94Z" fill="#6C63FF"/>
<path opacity="0.1" d="M826.89 561.17C826.89 561.17 820.1 592.8 850.32 596.55L852.19 593.04C852.19 593.04 828.79 571.04 826.89 561.17Z" fill="black"/>
<path opacity="0.1" d="M861.83 592.83L854.83 594.32L854.13 594.47C854.13 594.47 835.38 579.25 835.62 545.27C838.129 550.277 841.127 555.023 844.57 559.44C851.98 569.27 860.43 582.4 861.83 592.83Z" fill="black"/>
<path opacity="0.1" d="M864.21 596.09C863.656 596.448 863.029 596.678 862.375 596.762C861.722 596.847 861.057 596.785 860.43 596.58C842.43 592.36 848.48 533.58 848.48 533.58C849.48 534.05 850.57 541.58 854.72 551.18C862 568.17 870 591.83 864.21 596.09Z" fill="black"/>
<path opacity="0.1" d="M904.23 561.17C904.23 561.17 905.4 592.8 875.18 596.55L873.31 593.04C873.31 593.04 902.36 571.04 904.23 561.17Z" fill="black"/>
<path opacity="0.1" d="M895.57 545.27C895.79 579.27 871.43 594.47 871.43 594.47L870.73 594.32L863.73 592.83C865.12 582.4 873.59 569.27 881.01 559.44C885.207 554.086 890.104 549.32 895.57 545.27V545.27Z" fill="black"/>
<path opacity="0.1" d="M870.62 593.01C869.539 594.328 868.171 595.382 866.62 596.09C866.148 596.302 865.655 596.466 865.15 596.58C860.71 597.58 859.15 594.42 859.41 588.98C859.83 579.29 865.92 562.49 871.41 549.98C875.35 540.92 881.78 534.06 882.74 533.61C882.68 533.56 882.41 579.35 870.62 593.01Z" fill="black"/>
<path opacity="0.1" d="M865.58 512.94C865.58 512.94 845.43 584.4 862.77 595.18C880.11 605.96 870.03 519.27 865.58 512.94Z" fill="black"/>
<path d="M826.89 561.17C826.89 561.17 822.89 592.8 853.13 596.55L855 593.04C855 593.04 828.79 571.04 826.89 561.17Z" fill="#6C63FF"/>
<path d="M864.64 592.83L857.64 594.32L856.93 594.47C856.93 594.47 835.37 579.25 835.61 545.27C835.61 545.27 841.13 551.19 847.37 559.44C854.79 569.27 863.24 582.4 864.64 592.83Z" fill="#6C63FF"/>
<path opacity="0.1" d="M864.64 592.83L857.64 594.32C850.97 588.47 848.33 573.2 847.37 559.44C854.79 569.27 863.24 582.4 864.64 592.83Z" fill="black"/>
<path d="M867.02 596.09C866.466 596.448 865.839 596.678 865.185 596.762C864.531 596.847 863.867 596.785 863.24 596.58C845.19 592.36 848.48 533.58 848.48 533.58C849.48 534.05 853.38 541.58 857.48 551.18C864.81 568.17 872.81 591.83 867.02 596.09Z" fill="#6C63FF"/>
<path d="M904.23 561.17C904.23 561.17 908.23 592.8 877.99 596.55L876.12 593.04C876.12 593.04 902.36 571.04 904.23 561.17Z" fill="#6C63FF"/>
<path d="M895.57 545.27C895.79 579.27 874.24 594.47 874.24 594.47L873.54 594.32L866.54 592.83C867.94 582.4 876.4 569.27 883.82 559.44C890.04 551.17 895.57 545.27 895.57 545.27Z" fill="#6C63FF"/>
<path opacity="0.1" d="M883.79 559.44C882.89 572.28 880.54 586.44 874.84 593.01C874.442 593.481 874.008 593.919 873.54 594.32L866.54 592.83C867.89 582.4 876.37 569.27 883.79 559.44Z" fill="black"/>
<path d="M873.43 593.01C872.349 594.328 870.981 595.382 869.43 596.09C868.954 596.302 868.459 596.467 867.95 596.58C863.51 597.58 861.95 594.42 862.21 588.98C862.64 579.29 868.72 562.49 874.21 549.98C878.15 540.92 881.77 534.06 882.73 533.61C882.68 533.56 885.22 579.35 873.43 593.01Z" fill="#6C63FF"/>
<path opacity="0.1" d="M867.02 596.09C865.999 596.085 865.005 595.767 864.17 595.18C855.68 589.89 855.51 570.04 857.53 551.18C864.81 568.17 872.81 591.83 867.02 596.09Z" fill="black"/>
<path opacity="0.1" d="M873.43 593.01C872.43 595.12 871.14 596.24 869.43 596.09C868.565 595.975 867.737 595.663 867.01 595.18C864.805 593.662 863.127 591.495 862.21 588.98C862.64 579.29 868.72 562.49 874.21 549.98C876.11 567.37 876.76 585.86 873.43 593.01Z" fill="black"/>
<path d="M865.58 512.94C865.58 512.94 848.24 584.4 865.58 595.18C882.92 605.96 870.03 519.27 865.58 512.94Z" fill="#6C63FF"/>
<path d="M898.85 591.66H826.69V603.61H837.7L837.97 605.02L842.38 628.21H884.33L888.74 605.02L889.01 603.61H898.85V591.66Z" fill="#D4DFEC"/>
<path opacity="0.1" d="M898.82 591.66H826.66V603.61H837.67L837.94 605.02L842.35 628.21H884.3L888.71 605.02L888.98 603.61H898.82V591.66Z" fill="black"/>
<path d="M892.76 598.69L891.55 605.02L887.14 628.21H845.19L840.78 605.02L839.57 598.69H892.76Z" fill="#D4DFEC"/>
<path opacity="0.1" d="M892.76 598.69L891.55 605.02H840.78L839.57 598.69H892.76Z" fill="black"/>
<path d="M901.66 591.66H829.5V603.61H901.66V591.66Z" fill="#D4DFEC"/>
<path d="M285.62 515.17C284.593 516.58 283.772 518.129 283.18 519.77C283.03 520.17 282.88 520.63 282.73 521.07C282.46 520.938 282.174 520.84 281.88 520.78C280.633 520.463 279.343 520.351 278.06 520.45C278.06 519.95 278.11 519.45 278.13 518.88C278.29 513.22 277.62 505.35 272.23 508.68C267.06 511.9 270.75 517.24 274.09 520.68C274.38 520.98 274.66 521.25 274.94 521.52C271.94 523.71 271.32 528.74 270.81 534.01C270.3 539.28 265.81 545.01 262.87 548.31C262.58 548.64 262.3 548.94 262.03 549.22C260.834 548.258 259.446 547.562 257.96 547.179C256.473 546.796 254.922 546.735 253.41 547L253.01 545.54C250.61 536.87 245.62 521.85 239.26 518.54L240.1 517.48C242.8 513.94 245.84 508.69 241.35 507.35C236.86 506.01 236.45 511.9 236.7 516.35C236.7 516.9 236.78 517.43 236.83 517.92C235.931 517.962 235.049 518.187 234.239 518.58C233.43 518.974 232.708 519.529 232.12 520.21C231.91 519.95 231.68 519.68 231.43 519.39C227.79 515.08 221.1 508.27 219.08 513.39C217.2 518.19 223.08 524.39 227.22 528.05L227.48 528.27C224.7 539.55 236.82 548.73 243.36 552.75C243.65 552.94 243.93 553.11 244.2 553.27C235.2 563.88 229.63 583.78 229.63 583.78L254.89 588.37C254.89 588.37 271.62 573.94 269.48 560.37H269.65C286.36 557.02 290.16 539.2 287.56 528.62L287.85 528.5C290.893 527.253 293.56 525.237 295.59 522.65C300.23 516.17 290.42 508.82 285.62 515.17Z" fill="#6C63FF"/>
<path opacity="0.1" d="M285.62 515.17C284.593 516.58 283.772 518.129 283.18 519.77C283.03 520.17 282.88 520.63 282.73 521.07C282.46 520.938 282.174 520.84 281.88 520.78C280.633 520.463 279.343 520.351 278.06 520.45C278.06 519.95 278.11 519.45 278.13 518.88C278.29 513.22 277.62 505.35 272.23 508.68C267.06 511.9 270.75 517.24 274.09 520.68C274.38 520.98 274.66 521.25 274.94 521.52C271.94 523.71 271.32 528.74 270.81 534.01C270.3 539.28 265.81 545.01 262.87 548.31C262.58 548.64 262.3 548.94 262.03 549.22C260.834 548.258 259.446 547.562 257.96 547.179C256.473 546.796 254.922 546.735 253.41 547L253.01 545.54C250.61 536.87 245.62 521.85 239.26 518.54L240.1 517.48C242.8 513.94 245.84 508.69 241.35 507.35C236.86 506.01 236.45 511.9 236.7 516.35C236.7 516.9 236.78 517.43 236.83 517.92C235.931 517.962 235.049 518.187 234.239 518.58C233.43 518.974 232.708 519.529 232.12 520.21C231.91 519.95 231.68 519.68 231.43 519.39C227.79 515.08 221.1 508.27 219.08 513.39C217.2 518.19 223.08 524.39 227.22 528.05L227.48 528.27C224.7 539.55 236.82 548.73 243.36 552.75C243.65 552.94 243.93 553.11 244.2 553.27C235.2 563.88 229.63 583.78 229.63 583.78L254.89 588.37C254.89 588.37 271.62 573.94 269.48 560.37H269.65C286.36 557.02 290.16 539.2 287.56 528.62L287.85 528.5C290.893 527.253 293.56 525.237 295.59 522.65C300.23 516.17 290.42 508.82 285.62 515.17Z" fill="black"/>
<path d="M235.42 522.47L232.47 531.11C232.47 531.11 230.83 529.95 228.76 528.11C224.62 524.49 218.76 518.25 220.62 513.45C222.62 508.29 229.33 515.1 232.98 519.45C234.44 521.17 235.42 522.47 235.42 522.47Z" fill="#6C63FF"/>
<path d="M241.64 517.55C240.743 518.726 239.785 519.854 238.77 520.93C238.515 519.427 238.338 517.911 238.24 516.39C238 511.97 238.46 506.1 242.89 507.39C247.32 508.68 244.34 514.01 241.64 517.55Z" fill="#6C63FF"/>
<path d="M279.68 518.91C279.58 521.75 279.31 524.02 279.31 524.02C278.013 523.005 276.783 521.906 275.63 520.73C272.29 517.27 268.63 511.93 273.78 508.73C279.17 505.38 279.83 513.25 279.68 518.91Z" fill="#6C63FF"/>
<path d="M297.1 522.63C295.07 525.217 292.403 527.233 289.36 528.48C288.515 528.85 287.647 529.164 286.76 529.42L283.29 524.54C283.657 522.928 284.139 521.344 284.73 519.8C285.318 518.157 286.14 516.608 287.17 515.2C291.97 508.82 301.77 516.17 297.1 522.63Z" fill="#6C63FF"/>
<path opacity="0.1" d="M232.98 519.43C234.44 521.15 235.42 522.43 235.42 522.43L232.47 531.07C232.47 531.07 230.83 529.91 228.76 528.07C229.221 525.304 230.362 522.696 232.08 520.48C232.38 520.12 232.68 519.77 232.98 519.43Z" fill="black"/>
<path opacity="0.1" d="M241.64 517.55C240.743 518.726 239.785 519.854 238.77 520.93C238.515 519.427 238.338 517.911 238.24 516.39C239.467 516.411 240.656 516.817 241.64 517.55V517.55Z" fill="black"/>
<path d="M256.14 551.81L248.81 555.04C247.47 554.37 246.165 553.633 244.9 552.83C237.19 548.09 221.69 536.16 232.08 522.09C242.47 508.02 251.14 533.25 254.55 545.59C255.59 549.28 256.14 551.81 256.14 551.81Z" fill="#6C63FF"/>
<path opacity="0.1" d="M275.63 520.73C276.698 519.628 278.147 518.976 279.68 518.91C279.58 521.75 279.31 524.02 279.31 524.02C278.013 523.005 276.783 521.906 275.63 520.73V520.73Z" fill="black"/>
<path opacity="0.1" d="M289.36 528.48C288.515 528.85 287.647 529.164 286.76 529.42L283.29 524.54C283.657 522.928 284.139 521.344 284.73 519.8C286.97 521.11 288.62 524.37 289.36 528.48Z" fill="black"/>
<path d="M271.15 560.35C270.75 560.43 270.33 560.51 269.92 560.57C245.33 564.31 261.81 551.04 261.81 551.04C261.81 551.04 262.92 550.04 264.42 548.36C267.42 545.08 271.85 539.36 272.36 534.06C273.13 526.06 274.02 518.61 283.43 520.81C292.66 522.97 294.42 555.69 271.15 560.35Z" fill="#6C63FF"/>
<path d="M270.7 621.57H223.72V633.92H270.7V621.57Z" fill="#D4DFEC"/>
<path d="M277.63 581.42H216.25V624.53H277.63V581.42Z" fill="#D4DFEC"/>
<path opacity="0.1" d="M270.7 621.57H223.72V633.92H270.7V621.57Z" fill="black"/>
<path opacity="0.1" d="M277.63 581.42H216.25V624.53H277.63V581.42Z" fill="black"/>
<path d="M273.78 621.57H226.8V633.92H273.78V621.57Z" fill="#D4DFEC"/>
<path opacity="0.1" d="M254.55 545.59C255.55 549.28 256.14 551.81 256.14 551.81L248.81 555.04C247.47 554.371 246.165 553.633 244.9 552.83C247.77 549.17 251.01 546.44 254.55 545.59Z" fill="black"/>
<path opacity="0.1" d="M271.15 560.35C270.75 560.43 270.33 560.51 269.92 560.57C245.33 564.31 261.81 551.04 261.81 551.04C261.81 551.04 262.92 550.04 264.42 548.36C269.01 552.03 270.89 556.17 271.15 560.35Z" fill="black"/>
<path d="M231.18 583.86C231.18 583.86 244.95 534.58 264.25 549.76C283.55 564.94 256.4 588.37 256.4 588.37L231.18 583.86Z" fill="#6C63FF"/>
<path opacity="0.1" d="M238.13 531.36C238.98 531.36 239.67 530.671 239.67 529.82C239.67 528.969 238.98 528.28 238.13 528.28C237.279 528.28 236.59 528.969 236.59 529.82C236.59 530.671 237.279 531.36 238.13 531.36Z" fill="black"/>
<path opacity="0.1" d="M238 538.56C238.851 538.56 239.54 537.871 239.54 537.02C239.54 536.17 238.851 535.48 238 535.48C237.149 535.48 236.46 536.17 236.46 537.02C236.46 537.871 237.149 538.56 238 538.56Z" fill="black"/>
<path opacity="0.1" d="M282.78 532.77C283.631 532.77 284.32 532.08 284.32 531.23C284.32 530.379 283.631 529.69 282.78 529.69C281.929 529.69 281.24 530.379 281.24 531.23C281.24 532.08 281.929 532.77 282.78 532.77Z" fill="black"/>
<path opacity="0.1" d="M246.75 569.7C247.601 569.7 248.29 569.01 248.29 568.16C248.29 567.309 247.601 566.62 246.75 566.62C245.899 566.62 245.21 567.309 245.21 568.16C245.21 569.01 245.899 569.7 246.75 569.7Z" fill="black"/>
<path opacity="0.1" d="M279.57 544.74C280.421 544.74 281.11 544.05 281.11 543.2C281.11 542.349 280.421 541.66 279.57 541.66C278.72 541.66 278.03 542.349 278.03 543.2C278.03 544.05 278.72 544.74 279.57 544.74Z" fill="black"/>
<path opacity="0.1" d="M263.61 560.7C264.461 560.7 265.15 560.01 265.15 559.16C265.15 558.309 264.461 557.62 263.61 557.62C262.759 557.62 262.07 558.309 262.07 559.16C262.07 560.01 262.759 560.7 263.61 560.7Z" fill="black"/>
<path opacity="0.1" d="M243.41 534.44C244.261 534.44 244.95 533.751 244.95 532.9C244.95 532.05 244.261 531.36 243.41 531.36C242.559 531.36 241.87 532.05 241.87 532.9C241.87 533.751 242.559 534.44 243.41 534.44Z" fill="black"/>
<path opacity="0.1" d="M278.54 537.4C279.391 537.4 280.08 536.711 280.08 535.86C280.08 535.01 279.391 534.32 278.54 534.32C277.689 534.32 277 535.01 277 535.86C277 536.711 277.689 537.4 278.54 537.4Z" fill="black"/>
<path opacity="0.1" d="M273.26 549.37C274.11 549.37 274.8 548.681 274.8 547.83C274.8 546.98 274.11 546.29 273.26 546.29C272.409 546.29 271.72 546.98 271.72 547.83C271.72 548.681 272.409 549.37 273.26 549.37Z" fill="black"/>
<path opacity="0.1" d="M257.05 568.55C257.901 568.55 258.59 567.861 258.59 567.01C258.59 566.159 257.901 565.47 257.05 565.47C256.199 565.47 255.51 566.159 255.51 567.01C255.51 567.861 256.199 568.55 257.05 568.55Z" fill="black"/>
<path opacity="0.1" d="M253.7 560.95C254.551 560.95 255.24 560.26 255.24 559.41C255.24 558.559 254.551 557.87 253.7 557.87C252.85 557.87 252.16 558.559 252.16 559.41C252.16 560.26 252.85 560.95 253.7 560.95Z" fill="black"/>
<path opacity="0.1" d="M245.72 543.84C246.571 543.84 247.26 543.151 247.26 542.3C247.26 541.449 246.571 540.76 245.72 540.76C244.869 540.76 244.18 541.449 244.18 542.3C244.18 543.151 244.869 543.84 245.72 543.84Z" fill="black"/>
<path opacity="0.1" d="M273.78 621.57H226.8V626.08H273.78V621.57Z" fill="black"/>
<path d="M280.72 581.42H219.34V624.53H280.72V581.42Z" fill="#D4DFEC"/>
<path opacity="0.1" d="M259.11 575.5C259.961 575.5 260.65 574.81 260.65 573.96C260.65 573.109 259.961 572.42 259.11 572.42C258.259 572.42 257.57 573.109 257.57 573.96C257.57 574.81 258.259 575.5 259.11 575.5Z" fill="black"/>
<path opacity="0.1" d="M249.84 577.43C250.69 577.43 251.38 576.741 251.38 575.89C251.38 575.039 250.69 574.35 249.84 574.35C248.989 574.35 248.3 575.039 248.3 575.89C248.3 576.741 248.989 577.43 249.84 577.43Z" fill="black"/>
<defs>
<linearGradient id="paint0_linear" x1="554.89" y1="618.37" x2="554.89" y2="7.37154e-05" gradientUnits="userSpaceOnUse">
<stop offset="0.2" stop-color="#808080" stop-opacity="0.4"/>
<stop offset="0.46" stop-color="#808080" stop-opacity="0.5"/>
<stop offset="1" stop-opacity="0.6"/>
</linearGradient>
</defs>
</svg>
